<?xml version="1.0" encoding="UTF-8"?>
<svg version="1.1" xmlns="http://www.w3.org/2000/svg" width="135" height="135">
<path d="M0 0 C13.70848804 11.17882378 25.13498046 26.79474282 27.34228516 44.75146484 C28.67485022 64.56878562 25.68468213 83.33091441 12.30981445 98.7878418 C-1.27493257 113.54340281 -17.64185098 122.31244424 -37.87963867 123.15209961 C-56.69396609 123.47424083 -73.98815691 116.96642518 -87.64941406 103.95581055 C-100.76308979 90.83538216 -107.48998239 73.88879287 -108.09521484 55.43896484 C-107.58589783 35.00261974 -99.29024764 17.82523011 -84.59521484 3.62646484 C-61.27148517 -16.10285444 -24.8788332 -18.73790176 0 0 Z " fill="#0C3F68" transform="translate(107.65771484375,12.24853515625)"/>
<path d="M0 0 C13.70848804 11.17882378 25.13498046 26.79474282 27.34228516 44.75146484 C28.67485022 64.56878562 25.68468213 83.33091441 12.30981445 98.7878418 C-1.27493257 113.54340281 -17.64185098 122.31244424 -37.87963867 123.15209961 C-56.69396609 123.47424083 -73.98815691 116.96642518 -87.64941406 103.95581055 C-100.76308979 90.83538216 -107.48998239 73.88879287 -108.09521484 55.43896484 C-107.58589783 35.00261974 -99.29024764 17.82523011 -84.59521484 3.62646484 C-61.27148517 -16.10285444 -24.8788332 -18.73790176 0 0 Z M-84.65771484 15.75146484 C-93.55313447 26.39108439 -97.83578222 39.36188644 -97.84521484 53.00146484 C-97.85746094 53.91798828 -97.86970703 54.83451172 -97.88232422 55.77880859 C-97.89899011 63.56733426 -96.54515507 70.0216083 -93.53271484 77.25146484 C-93.17951172 78.10740234 -92.82630859 78.96333984 -92.46240234 79.84521484 C-92.06408203 80.78880859 -92.06408203 80.78880859 -91.65771484 81.75146484 C-88.62917629 82.08869656 -88.62917629 82.08869656 -86.89599609 80.14208984 C-85.62314436 78.7272364 -84.35227318 77.31059839 -83.08349609 75.89208984 C-77.02611101 70.54676452 -71.29374077 69.10981878 -63.34521484 69.31396484 C-62.14928711 69.30333008 -62.14928711 69.30333008 -60.92919922 69.29248047 C-55.08554427 69.35637241 -55.08554427 69.35637241 -53.07836914 71.20996094 C-52.60955322 71.71865723 -52.1407373 72.22735352 -51.65771484 72.75146484 C-43.33184011 76.1619179 -34.54097424 77.6465095 -25.65771484 78.75146484 C-24.99771484 80.73146484 -24.33771484 82.71146484 -23.65771484 84.75146484 C-33.22771484 84.75146484 -42.79771484 84.75146484 -52.65771484 84.75146484 C-46.71527368 90.69390601 -39.00105491 89.99927841 -31.02490234 90.11474609 C-25.13436138 89.47922369 -21.61863867 86.98357225 -17.65771484 82.75146484 C-16.30055729 81.66626688 -14.92470567 80.60410559 -13.53271484 79.56396484 C-9.97121056 76.86354795 -6.75789809 73.96890427 -3.53271484 70.87646484 C0.47937875 67.18408495 2.88211672 65.63276553 8.34228516 65.75146484 C0.06946212 82.52420802 -12.00123612 95.00045827 -29.65771484 101.75146484 C-29.98771484 102.08146484 -30.31771484 102.41146484 -30.65771484 102.75146484 C-43.84662923 103.91407146 -54.58426434 100.50142652 -66.31787109 94.80224609 C-70.2951207 93.01613567 -73.55719645 92.63172118 -77.90771484 92.68896484 C-78.79974609 92.69798828 -79.69177734 92.70701172 -80.61083984 92.71630859 C-81.28630859 92.72791016 -81.96177734 92.73951172 -82.65771484 92.75146484 C-79.59353743 99.84418008 -72.42349766 104.48939099 -65.65771484 107.75146484 C-63.63646432 108.37005418 -61.62554097 108.86988739 -59.56005859 109.31787109 C-57.65771484 109.75146484 -57.65771484 109.75146484 -54.65771484 110.81396484 C-50.99318025 111.95913191 -47.46767344 112.47528992 -43.65771484 112.75146484 C-42.72056641 112.82880859 -41.78341797 112.90615234 -40.81787109 112.98583984 C-26.22266953 113.63531729 -11.94781578 108.25091656 -0.61083984 99.09912109 C9.31344162 89.76766175 17.89382468 75.94411628 18.44677734 62.14355469 C18.51299474 59.03286504 18.52789833 55.92533377 18.52978516 52.81396484 C18.54203125 51.755 18.55427734 50.69603516 18.56689453 49.60498047 C18.57753726 43.91821799 18.27276826 39.11561354 16.34228516 33.75146484 C15.68228516 33.75146484 15.02228516 33.75146484 14.34228516 33.75146484 C14.19339844 32.41921875 14.19339844 32.41921875 14.04150391 31.06005859 C12.90911802 25.70178573 9.62708905 22.03125082 6.34228516 17.75146484 C5.86533203 17.10693359 5.38837891 16.46240234 4.89697266 15.79833984 C-1.69397721 7.43724916 -10.96569189 2.68299867 -20.65771484 -1.24853516 C-21.69605469 -1.73 -21.69605469 -1.73 -22.75537109 -2.22119141 C-44.03570494 -11.03674397 -70.11359567 -0.24957818 -84.65771484 15.75146484 Z " fill="#C6A558" transform="translate(107.65771484375,12.24853515625)"/>
<path d="M0 0 C4.74965605 4.30376997 8.28748612 9.53618304 11.875 14.8125 C11.545 15.4725 11.215 16.1325 10.875 16.8125 C9.225 16.8125 7.575 16.8125 5.875 16.8125 C5.545 17.8025 5.215 18.7925 4.875 19.8125 C4.545 19.1525 4.215 18.4925 3.875 17.8125 C-0.2795254 14.57857966 -4.04516862 14.38284522 -9.125 14.5 C-9.82367188 14.49677734 -10.52234375 14.49355469 -11.2421875 14.49023438 C-16.94252676 14.54938884 -21.1912038 15.46709622 -25.3125 19.5 C-28.37968245 22.69333906 -29.26533129 25.51415647 -30.125 29.8125 C-30.785 29.8125 -31.445 29.8125 -32.125 29.8125 C-32.455 30.8025 -32.785 31.7925 -33.125 32.8125 C-35.015625 32.5703125 -35.015625 32.5703125 -37.125 31.8125 C-40.97676187 25.11503346 -40.78523956 17.81511282 -38.875 10.5625 C-37.77929259 6.64230239 -36.56994061 5.00473494 -33.125 2.8125 C-34.71462659 6.84770597 -36.40732318 10.83061282 -38.125 14.8125 C-31.63252592 13.82150959 -31.63252592 13.82150959 -26.67578125 9.92578125 C-25.64101363 7.58221663 -24.85152328 5.26884061 -24.125 2.8125 C-23.54208775 1.1248545 -22.95877426 -0.56265248 -22.375 -2.25 C-21.95368253 -3.56101447 -21.53520877 -4.87296734 -21.125 -6.1875 C-27.65707319 -5.5024001 -33.00671085 -4.67496671 -37.82421875 0.0390625 C-40.04738944 3.07005197 -40.63016739 6.14491712 -41.125 9.8125 C-41.33125 10.9675 -41.5375 12.1225 -41.75 13.3125 C-41.935625 14.55 -41.935625 14.55 -42.125 15.8125 C-42.785 15.8125 -43.445 15.8125 -44.125 15.8125 C-44.41632812 15.20921875 -44.70765625 14.6059375 -45.0078125 13.984375 C-47.62637045 8.87901045 -49.67650462 5.22241142 -55.125 2.8125 C-58.15931003 2.51901755 -61.08908455 2.56962676 -64.125 2.8125 C-63.63 3.67875 -63.63 3.67875 -63.125 4.5625 C-62.125 6.8125 -62.125 6.8125 -62.125 10.8125 C-61.465 10.8125 -60.805 10.8125 -60.125 10.8125 C-59.465 12.4625 -58.805 14.1125 -58.125 15.8125 C-54.825 15.8125 -51.525 15.8125 -48.125 15.8125 C-51.22503562 10.98328237 -51.22503562 10.98328237 -55.125 6.8125 C-51.75432765 7.06217943 -50.93100981 8.02068459 -48.5625 10.5625 C-47.71486528 11.61856948 -46.90582906 12.70612152 -46.125 13.8125 C-45.59390625 14.56402344 -45.0628125 15.31554687 -44.515625 16.08984375 C-42.83379522 19.3826397 -42.62331964 21.94577104 -42.4375 25.625 C-42.33888672 27.36716797 -42.33888672 27.36716797 -42.23828125 29.14453125 C-42.18220703 30.46517578 -42.18220703 30.46517578 -42.125 31.8125 C-42.785 31.8125 -43.445 31.8125 -44.125 31.8125 C-45.05272005 30.42978349 -45.91737357 29.00447873 -46.75 27.5625 C-49.81500559 22.83852294 -52.6775161 20.34685747 -58.125 18.8125 C-64.10527015 18.24295046 -69.33949194 19.31255347 -75.125 20.8125 C-75.125 27.34728195 -70.4084114 31.16978929 -66.125 35.8125 C-63.10093754 38.68955943 -60.8086483 39.74053702 -56.5625 40.1875 C-53.35223098 39.83728883 -51.01441648 39.2134292 -48.125 37.8125 C-48.50612654 35.22308145 -48.89827986 34.03392294 -50.796875 32.1796875 C-54.44894067 29.55733959 -57.78089343 27.1700333 -62.125 25.8125 C-62.125 25.4825 -62.125 25.1525 -62.125 24.8125 C-53.92486918 24.99076371 -48.38660307 29.86152579 -42.5 35.1875 C-40.45501659 39.09155924 -40.50862632 42.49788425 -41.125 46.8125 C-42.78051376 51.69626558 -45.17358151 55.6398049 -48.125 59.8125 C-45.815 60.1425 -43.505 60.4725 -41.125 60.8125 C-41.785 61.8025 -42.445 62.7925 -43.125 63.8125 C-48.50294156 63.19196828 -52.24925751 62.68824249 -56.125 58.8125 C-68.16781683 57.66069087 -68.16781683 57.66069087 -79.34375 61.32421875 C-83.20928875 64.5539781 -86.7113772 68.11440863 -90.125 71.8125 C-92.78606724 69.47836388 -93.96920021 67.28267978 -95.25 64 C-95.58257812 63.16855469 -95.91515625 62.33710937 -96.2578125 61.48046875 C-100.72603594 47.73363717 -99.58922519 31.57934475 -93.125 18.8125 C-92.58359375 17.51505859 -92.58359375 17.51505859 -92.03125 16.19140625 C-86.04322573 2.48310782 -73.99622475 -6.83539548 -60.40625 -12.41015625 C-38.69787684 -19.80735875 -17.47109871 -14.16575571 0 0 Z " fill="#0C3E69" transform="translate(108.125,23.1875)"/>
<path d="M0 0 C13.70848804 11.17882378 25.13498046 26.79474282 27.34228516 44.75146484 C28.67485022 64.56878562 25.68468213 83.33091441 12.30981445 98.7878418 C-1.27493257 113.54340281 -17.64185098 122.31244424 -37.87963867 123.15209961 C-56.69396609 123.47424083 -73.98815691 116.96642518 -87.64941406 103.95581055 C-100.76308979 90.83538216 -107.48998239 73.88879287 -108.09521484 55.43896484 C-107.58589783 35.00261974 -99.29024764 17.82523011 -84.59521484 3.62646484 C-61.27148517 -16.10285444 -24.8788332 -18.73790176 0 0 Z M-78.65771484 6.75146484 C-79.66833984 7.47333984 -80.67896484 8.19521484 -81.72021484 8.93896484 C-89.28865776 15.49396953 -94.68620877 24.28166519 -97.65771484 33.75146484 C-97.95419922 34.55455078 -98.25068359 35.35763672 -98.55615234 36.18505859 C-103.35881921 50.65915095 -101.65036551 67.77715533 -95.14575195 81.38305664 C-86.96179931 97.37684993 -74.36483669 108.05642732 -57.53271484 114.31396484 C-41.51319882 118.57007242 -24.03117539 116.76455955 -9.65380859 108.54443359 C-1.74401878 103.70597247 4.58106784 98.06047189 10.34228516 90.75146484 C11.02677734 89.93935547 11.71126953 89.12724609 12.41650391 88.29052734 C14.34775909 85.74424769 15.66157009 83.34944584 16.96728516 80.43896484 C17.37205078 79.55595703 17.77681641 78.67294922 18.19384766 77.76318359 C20.88229866 70.712858 21.67766698 64.48206055 21.59228516 57.00146484 C21.58334229 56.11894043 21.57439941 55.23641602 21.56518555 54.32714844 C21.25824487 36.98897632 16.35967341 23.68202707 4.10009766 11.37646484 C-2.85272634 4.7584794 -9.6312257 0.13639827 -18.65771484 -3.24853516 C-19.51365234 -3.56951172 -20.36958984 -3.89048828 -21.25146484 -4.22119141 C-41.58849532 -10.50346375 -62.24975288 -6.46342552 -78.65771484 6.75146484 Z " fill="#2E4A5B" transform="translate(107.65771484375,12.24853515625)"/>
<path d="M0 0 C-2.83474357 15.77758591 -2.83474357 15.77758591 -8.9375 20.0625 C-11.84032672 20.95112042 -13.9915321 21.26545305 -17 21 C-16.39301257 16.87248551 -14.96189209 13.6678852 -13 10 C-17.0260216 14.39202357 -17.79221709 19.714388 -18.3125 25.4375 C-17.91828817 29.93151483 -16.59858586 33.80371211 -15 38 C-14.01 38 -13.02 38 -12 38 C-11.505 37.01 -11.505 37.01 -11 36 C-10.34 36 -9.68 36 -9 36 C-9 35.01 -9 34.02 -9 33 C-8.26501599 27.62474377 -4.14858573 24.15569601 0 21 C3.74384788 19.50411376 7.89007724 19.74233839 11.875 19.6875 C12.91720703 19.64399414 12.91720703 19.64399414 13.98046875 19.59960938 C19.37669938 19.53355382 21.9236954 20.76067957 26 24 C22.09542137 32.24299932 16.74544134 42.23371504 8 46 C2.34636771 46.94812467 -2.70973159 46.22748144 -8 44 C-7.14837067 38.90142966 -3.7605813 36.27764349 0 33 C2.9375 31.0625 2.9375 31.0625 5 30 C-0.61143516 31.36864272 -4.05888208 33.93945426 -8 38 C-8.50144531 38.50789063 -9.00289062 39.01578125 -9.51953125 39.5390625 C-14.56517552 45.90791608 -13.81912345 54.27228893 -13.87402344 62.02050781 C-14.00734848 64.11546795 -14.43283277 65.98277899 -15 68 C-16.6254308 67.85904936 -18.25034051 67.71207913 -19.875 67.5625 C-21.23238281 67.44068359 -21.23238281 67.44068359 -22.6171875 67.31640625 C-25 67 -25 67 -27 66 C-26.04476793 63.35474197 -25.14300693 61.18876915 -23.4375 58.9375 C-21.08709656 55.76956492 -20.81513592 52.43860138 -20.6875 48.5625 C-20.65011719 47.82128906 -20.61273438 47.08007812 -20.57421875 46.31640625 C-21.3768593 41.94974711 -24.25297712 39.56053822 -27.69140625 36.98046875 C-28.63886719 36.38878906 -29.58632813 35.79710937 -30.5625 35.1875 C-31.98755859 34.28064453 -31.98755859 34.28064453 -33.44140625 33.35546875 C-35.95925139 31.76593218 -35.95925139 31.76593218 -39 32 C-38.154375 32.37125 -37.30875 32.7425 -36.4375 33.125 C-32.45316122 35.2982757 -29.33363816 37.95238405 -26 41 C-26.3671875 42.921875 -26.3671875 42.921875 -27 45 C-30.90604308 47.2976724 -34.55055369 47.46836277 -39 47 C-45.727238 43.7826253 -52.22794285 36.94337408 -55.265625 30.18359375 C-55.62914063 29.10271484 -55.62914063 29.10271484 -56 28 C-52.24115986 24.24115986 -46.10616193 23.91157928 -40.9375 23.625 C-34.96880693 24.19344696 -30.81061293 26.14173936 -26.625 30.4375 C-25.05916268 32.906705 -23.9467995 35.23850146 -23 38 C-22.34 38 -21.68 38 -21 38 C-21.77424476 29.36316618 -23.10070369 22.60464695 -29 16 C-29.66 15.67 -30.32 15.34 -31 15 C-30.34 15.78375 -29.68 16.5675 -29 17.375 C-27 20 -27 20 -27 22 C-30.3 22 -33.6 22 -37 22 C-37.66 20.35 -38.32 18.7 -39 17 C-39.66 17 -40.32 17 -41 17 C-41.66 14.36 -42.32 11.72 -43 9 C-39.89046621 7.4452331 -37.43733239 7.71355563 -34 8 C-28.52360419 10.62866999 -25.61390874 14.65652284 -23 20 C-23 20.66 -23 21.32 -23 22 C-22.34 22 -21.68 22 -21 22 C-21.00902344 21.2265625 -21.01804688 20.453125 -21.02734375 19.65625 C-20.82864087 12.67573135 -19.95155782 8.45651908 -14.89453125 3.4921875 C-10.22207654 -0.1879727 -5.77222484 -0.23088899 0 0 Z " fill="#D4B76D" transform="translate(87,17)"/>
<path d="M0 0 C12.88424929 11.13780104 23.58209227 26.13130301 25.70703125 43.41796875 C26.99058878 62.50647105 24.24975227 79.89416001 12.40625 95.4375 C10.56779312 97.51107037 8.70806452 99.50208584 6.70703125 101.41796875 C6.41828125 100.79921875 6.12953125 100.18046875 5.83203125 99.54296875 C4.76983083 97.2847111 4.76983083 97.2847111 2.70703125 95.41796875 C3.82436854 93.91225218 4.9511316 92.41352583 6.08203125 90.91796875 C6.70851563 90.08265625 7.335 89.24734375 7.98046875 88.38671875 C8.83511719 87.4121875 8.83511719 87.4121875 9.70703125 86.41796875 C10.36703125 86.41796875 11.02703125 86.41796875 11.70703125 86.41796875 C11.97515625 85.57234375 12.24328125 84.72671875 12.51953125 83.85546875 C13.70703125 80.41796875 13.70703125 80.41796875 15.20703125 77.04296875 C18.1975598 69.81585809 19.045369 63.40754363 18.95703125 55.66796875 C18.94808838 54.78544434 18.93914551 53.90291992 18.92993164 52.99365234 C18.62468293 35.75105411 13.76970925 22.28325505 1.52734375 10.04296875 C-12.89928734 -3.38458817 -29.47079835 -7.43540716 -48.6875 -7.0234375 C-59.90347495 -6.41629411 -69.58098078 -1.99827696 -78.1796875 5.1953125 C-80.29296875 6.41796875 -80.29296875 6.41796875 -83.0625 6.109375 C-83.79855469 5.88121094 -84.53460938 5.65304688 -85.29296875 5.41796875 C-83.04454788 -1.32729385 -78.30759196 -3.55431726 -72.29296875 -6.58203125 C-49.23593059 -17.58032935 -20.45208311 -16.67800507 0 0 Z " fill="#1A415E" transform="translate(109.29296875,13.58203125)"/>
<path d="M0 0 C12.91092592 8.88981312 23.87161352 21.24152496 27.55859375 36.76171875 C29.6610154 50.58183308 30.05044252 64.70206464 24.55859375 77.76171875 C24.23503906 78.550625 23.91148438 79.33953125 23.578125 80.15234375 C21.57424015 84.56906953 19.13146384 87.43245344 15.55859375 90.76171875 C15.05199219 91.40625 14.54539062 92.05078125 14.0234375 92.71484375 C5.22039633 103.78152408 -8.45148025 111.75312496 -22.44140625 113.76171875 C-41.56011794 115.5536142 -57.16328883 111.56220842 -72.44140625 99.76171875 C-75.0263942 97.25153753 -77.32747961 94.67830175 -79.44140625 91.76171875 C-77.44140625 89.76171875 -77.44140625 89.76171875 -74.5078125 89.49609375 C-72.77337891 89.50382812 -72.77337891 89.50382812 -71.00390625 89.51171875 C-69.85019531 89.5065625 -68.69648437 89.50140625 -67.5078125 89.49609375 C-64.44140625 89.76171875 -64.44140625 89.76171875 -61.44140625 91.76171875 C-68.37140625 91.26671875 -68.37140625 91.26671875 -75.44140625 90.76171875 C-68.54453471 99.45777417 -61.37771391 104.57445722 -50.44140625 106.76171875 C-49.45140625 107.11234375 -48.46140625 107.46296875 -47.44140625 107.82421875 C-43.77687165 108.96938581 -40.25136485 109.48554383 -36.44140625 109.76171875 C-35.50425781 109.8390625 -34.56710938 109.91640625 -33.6015625 109.99609375 C-18.78902101 110.65524269 -3.93374695 105.15228347 7.23828125 95.4296875 C18.37846181 84.13713365 24.813052 69.69899587 24.78320312 53.86914062 C24.77095703 52.82306641 24.75871094 51.77699219 24.74609375 50.69921875 C24.74544922 49.64927734 24.74480469 48.59933594 24.74414062 47.51757812 C24.7138247 42.165134 24.49343126 37.03420231 23.55859375 31.76171875 C22.89859375 31.76171875 22.23859375 31.76171875 21.55859375 31.76171875 C21.26984375 30.70984375 20.98109375 29.65796875 20.68359375 28.57421875 C15.6543899 15.34318245 4.41280183 5.8494301 -8.06640625 -0.05078125 C-9.85256368 -0.79334108 -11.64390723 -1.52361297 -13.44140625 -2.23828125 C-14.13234375 -2.55796875 -14.82328125 -2.87765625 -15.53515625 -3.20703125 C-25.90968124 -7.51644932 -41.94403029 -6.60368936 -52.296875 -2.50341797 C-70.01275358 5.06523712 -79.85770655 16.00690766 -87.2421875 33.625 C-89.50821501 39.55210128 -89.62455016 44.71281064 -89.62890625 51.01171875 C-89.64115234 51.92824219 -89.65339844 52.84476563 -89.66601562 53.7890625 C-89.68268151 61.57758816 -88.32884648 68.0318622 -85.31640625 75.26171875 C-84.96320313 76.11765625 -84.61 76.97359375 -84.24609375 77.85546875 C-83.84777344 78.7990625 -83.84777344 78.7990625 -83.44140625 79.76171875 C-81.95640625 79.26671875 -81.95640625 79.26671875 -80.44140625 78.76171875 C-80.77140625 80.08171875 -81.10140625 81.40171875 -81.44140625 82.76171875 C-83.42140625 83.25671875 -83.42140625 83.25671875 -85.44140625 83.76171875 C-93.76857248 69.18094943 -96.12456829 52.31653507 -92.00195312 36.00024414 C-89.73114547 28.06932384 -86.43979718 21.37963495 -81.44140625 14.76171875 C-80.67828125 13.70984375 -79.91515625 12.65796875 -79.12890625 11.57421875 C-72.8640997 5.01802585 -65.67340755 -0.41482279 -57.44140625 -4.23828125 C-56.63058594 -4.63144531 -55.81976563 -5.02460938 -54.984375 -5.4296875 C-37.91219008 -12.43929704 -15.58145815 -9.19143965 0 0 Z " fill="#B3A063" transform="translate(100.44140625,14.23828125)"/>
<path d="M0 0 C1.04220703 -0.04350586 1.04220703 -0.04350586 2.10546875 -0.08789062 C7.50169938 -0.15394618 10.0486954 1.07317957 14.125 4.3125 C10.22042137 12.55549932 4.87044134 22.54621504 -3.875 26.3125 C-9.52863229 27.26062467 -14.58473159 26.53998144 -19.875 24.3125 C-19.02337067 19.21392966 -15.6355813 16.59014349 -11.875 13.3125 C-8.9375 11.375 -8.9375 11.375 -6.875 10.3125 C-14.47349633 12.16579179 -19.34185025 17.14741634 -23.875 23.3125 C-23.875 22.6525 -23.875 21.9925 -23.875 21.3125 C-25.195 21.6425 -26.515 21.9725 -27.875 22.3125 C-29.96730769 17.88173077 -29.96730769 17.88173077 -29.5 15 C-29.29375 14.443125 -29.0875 13.88625 -28.875 13.3125 C-28.215 14.9625 -27.555 16.6125 -26.875 18.3125 C-25.885 18.3125 -24.895 18.3125 -23.875 18.3125 C-23.545 17.6525 -23.215 16.9925 -22.875 16.3125 C-22.215 16.3125 -21.555 16.3125 -20.875 16.3125 C-20.875 15.3225 -20.875 14.3325 -20.875 13.3125 C-20.14001599 7.93724377 -16.02358573 4.46819601 -11.875 1.3125 C-8.13115212 -0.18338624 -3.98492276 0.05483839 0 0 Z " fill="#8BC3AC" transform="translate(98.875,36.6875)"/>
<path d="M0 0 C-2.83474357 15.77758591 -2.83474357 15.77758591 -8.9375 20.0625 C-11.84032672 20.95112042 -13.9915321 21.26545305 -17 21 C-16.39301257 16.87248551 -14.96189209 13.6678852 -13 10 C-18.84520539 16.37658769 -18.267798 24.9065494 -18 33 C-18.33 33 -18.66 33 -19 33 C-19.33 35.31 -19.66 37.62 -20 40 C-22.71702279 37.28297721 -22.196827 35.72607658 -22.25 31.9375 C-22.64249839 25.26502744 -24.49184328 20.92668586 -29 16 C-29.66 15.67 -30.32 15.34 -31 15 C-30.34 15.78375 -29.68 16.5675 -29 17.375 C-27 20 -27 20 -27 22 C-30.3 22 -33.6 22 -37 22 C-37.66 20.35 -38.32 18.7 -39 17 C-39.66 17 -40.32 17 -41 17 C-41.66 14.36 -42.32 11.72 -43 9 C-39.89046621 7.4452331 -37.43733239 7.71355563 -34 8 C-28.52360419 10.62866999 -25.61390874 14.65652284 -23 20 C-23 20.66 -23 21.32 -23 22 C-22.34 22 -21.68 22 -21 22 C-21.00902344 21.2265625 -21.01804687 20.453125 -21.02734375 19.65625 C-20.82864087 12.67573135 -19.95155782 8.45651908 -14.89453125 3.4921875 C-10.22207654 -0.1879727 -5.77222484 -0.23088899 0 0 Z " fill="#77B8AA" transform="translate(87,17)"/>
<path d="M0 0 C0.33 0 0.66 0 1 0 C1.06058594 1.25296875 1.12117188 2.5059375 1.18359375 3.796875 C1.26802256 5.44792724 1.35266939 7.09896835 1.4375 8.75 C1.47681641 9.575 1.51613281 10.4 1.55664062 11.25 C1.59853516 12.04921875 1.64042969 12.8484375 1.68359375 13.671875 C1.72025146 14.4050293 1.75690918 15.13818359 1.79467773 15.89355469 C1.94352623 18.01755777 1.94352623 18.01755777 2.55957031 20.0859375 C4.01236351 26.39962856 -0.94087189 35.79197637 -3.94921875 41.37890625 C-5.62639383 43.96636967 -7.74925119 45.90271134 -10 48 C-10.50660156 48.64453125 -11.01320313 49.2890625 -11.53515625 49.953125 C-20.33819742 61.01980533 -34.010074 68.99140621 -48 71 C-67.11871169 72.79189545 -82.72188258 68.80048967 -98 57 C-100.58498795 54.48981878 -102.88607336 51.916583 -105 49 C-103 47 -103 47 -100.06640625 46.734375 C-98.91011719 46.73953125 -97.75382812 46.7446875 -96.5625 46.75 C-95.40878906 46.74484375 -94.25507812 46.7396875 -93.06640625 46.734375 C-90 47 -90 47 -87 49 C-93.93 48.505 -93.93 48.505 -101 48 C-94.10312846 56.69605542 -86.93630766 61.81273847 -76 64 C-75.01 64.350625 -74.02 64.70125 -73 65.0625 C-69.3354654 66.20766706 -65.8099586 66.72382508 -62 67 C-61.06285156 67.07734375 -60.12570313 67.1546875 -59.16015625 67.234375 C-44.34761476 67.89352394 -29.4923407 62.39056472 -18.3203125 52.66796875 C-6.49214052 40.67801326 -0.95306087 26.07107827 -0.375 9.5 C-0.33632812 8.5821875 -0.29765625 7.664375 -0.2578125 6.71875 C-0.16450436 4.47935472 -0.07871815 2.23994746 0 0 Z " fill="#95875B" transform="translate(126,57)"/>
<path d="M0 0 C-0.33 1.32 -0.66 2.64 -1 4 C-0.34 4.33 0.32 4.66 1 5 C-3.63848547 9.97973644 -8.26451354 14.05210733 -14.0234375 17.68359375 C-16.30968785 19.20625456 -18.09989032 21.02680917 -20 23 C-28.31875127 25.77291709 -39.08395289 24.75969122 -47 21 C-47.33 20.34 -47.66 19.68 -48 19 C-38.43 19 -28.86 19 -19 19 C-19.66 17.02 -20.32 15.04 -21 13 C-29.415 11.515 -29.415 11.515 -38 10 C-38 9.67 -38 9.34 -38 9 C-32.39 9 -26.78 9 -21 9 C-21 8.34 -21 7.68 -21 7 C-19.34997172 5.64613064 -17.6825613 4.31321858 -16 3 C-15.67 2.34 -15.34 1.68 -15 1 C-12.98177083 1.03255208 -10.96354167 1.06510417 -8.9453125 1.09765625 C-5.8048904 0.94000454 -3.33810085 -0.08784476 0 0 Z " fill="#325974" transform="translate(103,78)"/>
<path d="M0 0 C-0.33 1.32 -0.66 2.64 -1 4 C-1.94617188 3.9685791 -2.89234375 3.9371582 -3.8671875 3.90478516 C-33.26479221 2.56884616 -33.26479221 2.56884616 -58.88671875 15.77734375 C-61 17 -61 17 -63.76953125 16.69140625 C-64.50558594 16.46324219 -65.24164063 16.23507813 -66 16 C-63.75157913 9.2547374 -59.01462321 7.02771399 -53 4 C-35.55322229 -4.32218175 -18.5216599 -4.93128188 0 0 Z " fill="#123659" transform="translate(90,3)"/>
<path d="M0 0 C2.125 0.375 2.125 0.375 4 1 C4.28696044 3.96696594 4.36364299 5.49393017 2.59375 7.95703125 C-11.56666363 20.50590526 -28.87535598 25.96772287 -47.66796875 25.359375 C-56.8562065 24.7855 -65.88941134 22.34807288 -74 18 C-71.69795225 17.19248705 -70.5081647 16.78023046 -68.22290039 17.76855469 C-67.58344482 18.14915039 -66.94398926 18.52974609 -66.28515625 18.921875 C-59.39276446 22.20490811 -51.88615893 21.42431457 -44.4375 21.25 C-42.93687287 21.2298987 -41.43621966 21.21165436 -39.93554688 21.1953125 C-36.28981517 21.15161687 -32.64507801 21.08279202 -29 21 C-29.33 19.35 -29.66 17.7 -30 16 C-29.23558594 15.82726562 -28.47117188 15.65453125 -27.68359375 15.4765625 C-17.35237954 12.76632821 -7.62567361 7.62567361 0 0 Z " fill="#0F3B5C" transform="translate(111,110)"/>
<path d="M0 0 C3.82321721 1.39907586 7.05902207 3.21020894 10.5 5.375 C25.20111787 13.86937329 38.38337687 13.5050055 55 13 C55.5625 14.9375 55.5625 14.9375 56 17 C53.32802405 19.67197595 45.79430767 18.31873851 41.96679688 18.35009766 C40.5102519 18.36645973 39.05378029 18.39347952 37.59765625 18.43212891 C23.81054527 18.79577977 13.37893831 15.74301588 1.828125 7.84375 C-0.39422655 5.602404 -0.77165517 4.11379313 -1 1 C-0.67 0.67 -0.34 0.34 0 0 Z " fill="#0B3658" transform="translate(27,114)"/>
<path d="M0 0 C16.78199266 4.13944321 30.75535274 13.96282143 40.296875 28.49609375 C46.34106237 38.8447469 47.90973903 48.78140831 48.05078125 60.625 C48.06391357 61.33148682 48.0770459 62.03797363 48.09057617 62.76586914 C48.09641002 66.50626051 47.99176797 68.11976993 45.86328125 71.3125 C45.84346191 70.71300537 45.82364258 70.11351074 45.80322266 69.49584961 C45.70723122 66.74683529 45.5978562 63.99850507 45.48828125 61.25 C45.45734375 60.30705078 45.42640625 59.36410156 45.39453125 58.39257812 C45.16917326 53.00276621 44.47267391 48.44816357 42.86328125 43.3125 C42.86328125 41.9925 42.86328125 40.6725 42.86328125 39.3125 C42.20328125 39.3125 41.54328125 39.3125 40.86328125 39.3125 C40.57453125 38.260625 40.28578125 37.20875 39.98828125 36.125 C34.9590774 22.8939637 23.71748933 13.40021135 11.23828125 7.5 C9.46571721 6.72555167 7.67064787 6.00183255 5.86328125 5.3125 C5.22559814 5.05573486 4.58791504 4.79896973 3.9309082 4.53442383 C-2.28079815 2.21120532 -8.10632106 1.77771437 -14.69921875 1.625 C-15.70791016 1.59083984 -16.71660156 1.55667969 -17.75585938 1.52148438 C-20.21603443 1.43986719 -22.67589184 1.37044324 -25.13671875 1.3125 C-18.72451494 -2.96230254 -7.42142362 -1.41877496 0 0 Z " fill="#C4A860" transform="translate(81.13671875,6.6875)"/>
<path d="M0 0 C3.12598494 0.43117034 4.73895187 0.53897733 7.625 -0.5 C10.69122783 3.91536808 10.69122783 3.91536808 10.3984375 6.5 C8.97519052 10.18031543 6.13383302 11.91025796 2.625 13.5 C-3.0133037 14.38042913 -8.10428183 13.71924976 -13.375 11.5 C-12.80041562 7.93442842 -11.52144352 6.28900304 -8.9375 3.8125 C-8.32003906 3.21050781 -7.70257813 2.60851563 -7.06640625 1.98828125 C-4.33172235 -0.41798795 -3.75777219 -0.55670699 0 0 Z " fill="#D1C17C" transform="translate(92.375,49.5)"/>
<path d="M0 0 C5.47639581 2.62866999 8.38609126 6.65652284 11 12 C11 12.66 11 13.32 11 14 C11.66 14 12.32 14 13 14 C13.33 10.04 13.66 6.08 14 2 C14.33 2 14.66 2 15 2 C15.144375 2.78375 15.28875 3.5675 15.4375 4.375 C15.87798925 6.96421018 15.87798925 6.96421018 17 9 C16.67998359 10.66927481 16.34428479 12.33556109 16 14 C15.93466565 15.93651019 15.91415697 17.87502861 15.9375 19.8125 C15.94652344 20.78832031 15.95554687 21.76414062 15.96484375 22.76953125 C15.97644531 23.50558594 15.98804687 24.24164063 16 25 C15.67 25 15.34 25 15 25 C14.67 27.31 14.34 29.62 14 32 C11.28297721 29.28297721 11.803173 27.72607658 11.75 23.9375 C11.35750161 17.26502744 9.50815672 12.92668586 5 8 C4.34 7.67 3.68 7.34 3 7 C3.99 8.175625 3.99 8.175625 5 9.375 C7 12 7 12 7 14 C3.7 14 0.4 14 -3 14 C-3.66 12.35 -4.32 10.7 -5 9 C-5.66 9 -6.32 9 -7 9 C-7.66 6.36 -8.32 3.72 -9 1 C-5.89046621 -0.5547669 -3.43733239 -0.28644437 0 0 Z " fill="#959E86" transform="translate(53,25)"/>
<path d="M0 0 C0.33 0 0.66 0 1 0 C1.06058594 1.25296875 1.12117188 2.5059375 1.18359375 3.796875 C1.26802256 5.44792724 1.35266939 7.09896835 1.4375 8.75 C1.47681641 9.575 1.51613281 10.4 1.55664062 11.25 C1.59853516 12.04921875 1.64042969 12.8484375 1.68359375 13.671875 C1.73858032 14.77160645 1.73858032 14.77160645 1.79467773 15.89355469 C1.94352623 18.01755777 1.94352623 18.01755777 2.55957031 20.0859375 C4.01236351 26.39962856 -0.94087189 35.79197637 -3.94921875 41.37890625 C-5.62639383 43.96636967 -7.74925119 45.90271134 -10 48 C-10.52980469 48.65613281 -11.05960938 49.31226563 -11.60546875 49.98828125 C-15.6175816 54.94140138 -19.88270678 58.60204044 -25.1875 62.0625 C-25.78167725 62.45663086 -26.37585449 62.85076172 -26.98803711 63.25683594 C-30.44948633 65.42381858 -32.90271042 66.4861191 -37 66 C-34.06834696 62.78351812 -31.22831141 60.925158 -27.375 58.9375 C-14.38822318 51.44877468 -5.83747836 38.50877995 -1.8203125 24.16796875 C-0.71175675 19.32424196 -0.54770693 14.45093212 -0.375 9.5 C-0.33632812 8.5821875 -0.29765625 7.664375 -0.2578125 6.71875 C-0.16450436 4.47935472 -0.07871815 2.23994746 0 0 Z " fill="#A28F60" transform="translate(126,57)"/>
<path d="M0 0 C0.99 0.495 0.99 0.495 2 1 C-10.025093 13.55954158 -26.00873793 19.68107869 -43.21972656 20.3972168 C-54.68127606 20.61143923 -65.82812529 18.45312485 -76 13 C-73.69019131 12.18949037 -72.49795427 11.78935819 -70.19873047 12.76196289 C-69.55307129 13.1408667 -68.90741211 13.51977051 -68.2421875 13.91015625 C-62.13181033 16.81039867 -55.87507396 16.56503021 -49.25341797 16.46655273 C-47.13558979 16.43764455 -45.02028435 16.44596526 -42.90234375 16.45898438 C-26.5581236 16.43386849 -11.81250424 11.81250424 0 0 Z " fill="#938251" transform="translate(113,115)"/>
<path d="M0 0 C2 2 2 2 2.125 5.625 C2.08375 6.73875 2.0425 7.8525 2 9 C2.66 9 3.32 9 4 9 C4.33 6.69 4.66 4.38 5 2 C5.33 2 5.66 2 6 2 C6.02703562 4.58340384 6.04685611 7.16652308 6.0625 9.75 C6.07087891 10.47960937 6.07925781 11.20921875 6.08789062 11.9609375 C6.10391684 15.48670558 5.95292713 18.61034916 5 22 C3.3745692 21.85904936 1.74965949 21.71207913 0.125 21.5625 C-0.77992187 21.48128906 -1.68484375 21.40007812 -2.6171875 21.31640625 C-5 21 -5 21 -7 20 C-6.06867353 17.42094207 -5.258367 15.31219346 -3.5 13.1875 C-1.67915974 10.53210796 -1.30269192 8.41739395 -0.8125 5.25 C-0.65394531 4.26515625 -0.49539062 3.2803125 -0.33203125 2.265625 C-0.22246094 1.51796875 -0.11289063 0.7703125 0 0 Z " fill="#DBCC8C" transform="translate(67,63)"/>
<path d="M0 0 C-3.13207382 3.74321017 -6.30828967 7.41449348 -9.6875 10.9375 C-10.24824219 11.52402344 -10.80898437 12.11054687 -11.38671875 12.71484375 C-13 14 -13 14 -16 14 C-15.67 12.68 -15.34 11.36 -15 10 C-16.32 10.33 -17.64 10.66 -19 11 C-20 8 -20 8 -19.28515625 6.17578125 C-17.97306042 4.17619752 -16.81205672 2.57073141 -15 1 C-12.14800727 0.41762744 -9.94853861 0.70997981 -7 1 C-4.53721199 -0.231394 -2.7204945 -0.07159196 0 0 Z " fill="#436A86" transform="translate(103,78)"/>
<path d="M0 0 C6.76976066 2.36712053 13.94408624 3.2484623 21.01171875 4.3125 C21.01171875 5.3025 21.01171875 6.2925 21.01171875 7.3125 C19.861875 7.16554688 18.71203125 7.01859375 17.52734375 6.8671875 C14.64455933 6.50525201 11.76155528 6.17682793 8.87109375 5.8828125 C7.50130208 5.734375 6.13151042 5.5859375 4.76171875 5.4375 C4.06820312 5.37175781 3.3746875 5.30601563 2.66015625 5.23828125 C-1.51939657 4.76587969 -3.75923683 3.91422495 -6.98828125 1.3125 C-13.66810627 -0.88791295 -20.08961109 -2.45227609 -26.98828125 -0.6875 C-26.98828125 -1.3475 -26.98828125 -2.0075 -26.98828125 -2.6875 C-17.655774 -5.79833575 -8.89163708 -3.2704872 0 0 Z " fill="#E8D08A" transform="translate(60.98828125,85.6875)"/>
<path d="M0 0 C3.37067235 0.24967943 4.19399019 1.20818459 6.5625 3.75 C7.41013472 4.80606948 8.21917094 5.89362152 9 7 C9.53109375 7.75152344 10.0621875 8.50304688 10.609375 9.27734375 C12.29120478 12.5701397 12.50168036 15.13327104 12.6875 18.8125 C12.78611328 20.55466797 12.78611328 20.55466797 12.88671875 22.33203125 C12.92410156 23.21246094 12.96148437 24.09289062 13 25 C12.34 25 11.68 25 11 25 C10.07227995 23.61728349 9.20762643 22.19197873 8.375 20.75 C5.23842985 15.81999494 2.37492787 14.13143691 -3 12 C0.09773244 11.15937603 2.78332751 10.91064799 6 11 C3.69 10.67 1.38 10.34 -1 10 C-1 9.67 -1 9.34 -1 9 C1.64 9 4.28 9 7 9 C3.89996438 4.17078237 3.89996438 4.17078237 0 0 Z " fill="#305D78" transform="translate(53,30)"/>
<path d="M0 0 C3.49992803 -0.05869332 6.9997272 -0.09382709 10.5 -0.125 C11.48226562 -0.14175781 12.46453125 -0.15851562 13.4765625 -0.17578125 C19.35918665 -0.21499874 24.36364503 0.29567362 30 2 C29.67 3.32 29.34 4.64 29 6 C20.75 5.34 12.5 4.68 4 4 C4 3.34 4 2.68 4 2 C2.68 1.34 1.36 0.68 0 0 Z " fill="#062C57" transform="translate(60,1)"/>
<path d="M0 0 C0.66 0 1.32 0 2 0 C2 0.66 2 1.32 2 2 C3.32 2.33 4.64 2.66 6 3 C5.67054081 5.9651327 5.15096845 7.78260543 3.4375 10.25 C-0.0223361 12.73398489 -2.77692253 12.7184615 -7 13 C-6.66951441 7.71223057 -3.51647805 3.75899378 0 0 Z " fill="#B1C091" transform="translate(77,25)"/>
<path d="M0 0 C0 0.33 0 0.66 0 1 C-4.62 1.33 -9.24 1.66 -14 2 C-13.34 2.33 -12.68 2.66 -12 3 C-12 3.66 -12 4.32 -12 5 C-8.04 5 -4.08 5 0 5 C0 5.33 0 5.66 0 6 C-0.90709717 6.03758423 -0.90709717 6.03758423 -1.83251953 6.07592773 C-4.5968562 6.19263006 -7.36091366 6.31501734 -10.125 6.4375 C-11.07632813 6.47681641 -12.02765625 6.51613281 -13.0078125 6.55664062 C-17.74628987 6.77053023 -22.33594301 7.06561821 -27 8 C-26.67 6.68 -26.34 5.36 -26 4 C-27.32 3.67 -28.64 3.34 -30 3 C-19.80478292 0.02122353 -10.53453398 -0.34063763 0 0 Z " fill="#1D4162" transform="translate(76,0)"/>
<path d="M0 0 C2.3129482 2.3129482 2.49580975 3.47904875 3.125 6.625 C3.29257813 7.44226562 3.46015625 8.25953125 3.6328125 9.1015625 C3.81457031 10.04128906 3.81457031 10.04128906 4 11 C5.32 10.67 6.64 10.34 8 10 C7 15 6 20 5 25 C4.01 24.67 3.02 24.34 2 24 C1.33984375 22.0390625 1.33984375 22.0390625 0.9375 19.625 C0.36829089 16.29648197 -0.05951616 14.91072575 -2 12 C-2 11.01 -2 10.02 -2 9 C-1.34 9 -0.68 9 0 9 C0 6.03 0 3.06 0 0 Z " fill="#EEDA98" transform="translate(67,48)"/>
<path d="M0 0 C9.57 0.33 19.14 0.66 29 1 C28.67 1.99 28.34 2.98 28 4 C19.68124873 6.77291709 8.91604711 5.75969122 1 2 C0.67 1.34 0.34 0.68 0 0 Z " fill="#445B63" transform="translate(55,97)"/>
<path d="M0 0 C0.33 0 0.66 0 1 0 C1.06058594 1.25296875 1.12117188 2.5059375 1.18359375 3.796875 C1.26802256 5.44792724 1.35266939 7.09896835 1.4375 8.75 C1.47681641 9.575 1.51613281 10.4 1.55664062 11.25 C1.61948242 12.44882813 1.61948242 12.44882813 1.68359375 13.671875 C1.72025146 14.4050293 1.75690918 15.13818359 1.79467773 15.89355469 C1.94352623 18.01755777 1.94352623 18.01755777 2.55957031 20.0859375 C4.16882366 27.07958841 -1.68013367 36.95310061 -5 43 C-5.99 42.34 -6.98 41.68 -8 41 C-6.64113143 36.58367713 -4.89726432 32.49920719 -2.90234375 28.34375 C-0.60742357 22.38291838 -0.71191955 15.93215094 -0.4375 9.625 C-0.39431641 8.69816406 -0.35113281 7.77132812 -0.30664062 6.81640625 C-0.20123814 4.54439706 -0.09911394 2.27229075 0 0 Z " fill="#837E62" transform="translate(126,57)"/>
<path d="M0 0 C5.47041733 4.5586811 7.3833282 13.10638619 8.8125 19.8125 C8.91460961 21.20599581 8.96783542 22.60313838 9 24 C9.03867188 25.299375 9.07734375 26.59875 9.1171875 27.9375 C9.14389827 29.39577705 9.16729185 30.85411834 9.1875 32.3125 C9.20079346 33.01930908 9.21408691 33.72611816 9.2277832 34.4543457 C9.23272139 38.19434663 9.1283182 39.80752271 7 43 C6.98018066 42.40050537 6.96036133 41.80101074 6.93994141 41.18334961 C6.84394997 38.43433529 6.73457495 35.68600507 6.625 32.9375 C6.5940625 31.99455078 6.563125 31.05160156 6.53125 30.08007812 C6.30589201 24.69026621 5.60939266 20.13566357 4 15 C4 13.68 4 12.36 4 11 C3.34 11 2.68 11 2 11 C1.47007308 9.54494642 0.9513211 8.08581873 0.4375 6.625 C0.14746094 5.81289063 -0.14257812 5.00078125 -0.44140625 4.1640625 C-1 2 -1 2 0 0 Z " fill="#BAA366" transform="translate(120,35)"/>
<path d="M0 0 C3.62276315 1.3255581 6.63505348 2.94346955 9.8125 5.125 C10.60269531 5.66382812 11.39289062 6.20265625 12.20703125 6.7578125 C12.79871094 7.16773437 13.39039063 7.57765625 14 8 C13.34 9.65 12.68 11.3 12 13 C6.91061189 11.40956621 3.12543357 8.2553049 -1 5 C-0.67 3.35 -0.34 1.7 0 0 Z " fill="#13344E" transform="translate(27,114)"/>
<path d="M0 0 C0.33 0 0.66 0 1 0 C1.04898437 1.134375 1.09796875 2.26875 1.1484375 3.4375 C1.2235414 4.95835398 1.29908584 6.47918625 1.375 8 C1.4059375 8.74378906 1.436875 9.48757812 1.46875 10.25390625 C1.84304893 17.42796911 3.34880973 23.83714334 6.125 30.5 C6.47820313 31.3559375 6.83140625 32.211875 7.1953125 33.09375 C7.46085937 33.7228125 7.72640625 34.351875 8 35 C9.485 34.505 9.485 34.505 11 34 C10.67 35.32 10.34 36.64 10 38 C8.02 38.495 8.02 38.495 6 39 C-1.42701483 25.93185559 -1.18527016 14.55960243 0 0 Z " fill="#97834E" transform="translate(9,59)"/>
<path d="M0 0 C0.66 0 1.32 0 2 0 C2 0.66 2 1.32 2 2 C3.65 2.33 5.3 2.66 7 3 C4.92348993 5.15341785 2.86774812 7.10249521 0.5 8.9375 C-2.08506206 11.0701762 -3.99441543 13.32588723 -6 16 C-6 15.34 -6 14.68 -6 14 C-7.32 14.33 -8.64 14.66 -10 15 C-12.09230769 10.56923077 -12.09230769 10.56923077 -11.625 7.6875 C-11.41875 7.130625 -11.2125 6.57375 -11 6 C-10.34 7.65 -9.68 9.3 -9 11 C-8.01 11 -7.02 11 -6 11 C-5.67 10.34 -5.34 9.68 -5 9 C-4.34 9 -3.68 9 -3 9 C-2.87625 7.88625 -2.7525 6.7725 -2.625 5.625 C-2 2 -2 2 0 0 Z " fill="#B9BA87" transform="translate(81,44)"/>
<path d="M0 0 C4.73674399 3.1219449 4.73674399 3.1219449 5.640625 6.13671875 C5.75921875 6.75160156 5.8778125 7.36648437 6 8 C2.62110327 8.28527271 -0.63115091 8.44483998 -4 8 C-6.60078552 5.16973341 -7 3.82254857 -7 0 C-4.22339666 -1.38830167 -2.95033814 -0.89196269 0 0 Z " fill="#C1B781" transform="translate(54,31)"/>
<path d="M0 0 C-0.59167969 0.37511719 -1.18335937 0.75023437 -1.79296875 1.13671875 C-7.45132412 4.80126537 -12.21070479 8.31605719 -16 14 C-16.99 15.485 -16.99 15.485 -18 17 C-19.4807848 19.9615696 -19.35314037 22.83506295 -19.5625 26.125 C-19.64628906 27.40632813 -19.73007813 28.68765625 -19.81640625 30.0078125 C-19.87699219 30.99523437 -19.93757813 31.98265625 -20 33 C-20.33 33 -20.66 33 -21 33 C-22.28441941 15.4258804 -22.28441941 15.4258804 -16.08203125 8.0234375 C-5.98023307 -1.79406992 -5.98023307 -1.79406992 0 0 Z " fill="#3A6077" transform="translate(94,47)"/>
<path d="M0 0 C1.15628906 0.00515625 2.31257813 0.0103125 3.50390625 0.015625 C4.65761719 0.01046875 5.81132812 0.0053125 7 0 C10.06640625 0.265625 10.06640625 0.265625 13.06640625 2.265625 C6.13640625 1.770625 6.13640625 1.770625 -0.93359375 1.265625 C3.61204916 6.85297774 7.72529719 10.83977907 14.06640625 14.265625 C13.73640625 14.925625 13.40640625 15.585625 13.06640625 16.265625 C5.45340763 13.88656293 -0.20319072 8.47427897 -4.93359375 2.265625 C-2.93359375 0.265625 -2.93359375 0.265625 0 0 Z " fill="#998755" transform="translate(25.93359375,103.734375)"/>
<path d="M0 0 C0 0.66 0 1.32 0 2 C0.99 2.33 1.98 2.66 3 3 C2.50168276 6.68754757 1.89932357 8.60490662 -1 11 C-2.485 8.03 -2.485 8.03 -4 5 C-5.0828125 5.309375 -5.0828125 5.309375 -6.1875 5.625 C-9.44641585 6.05952211 -11.08304504 5.41680669 -14 4 C-11.8553857 1.8553857 -10.98260002 1.55435397 -8.125 0.875 C-7.44695312 0.70742188 -6.76890625 0.53984375 -6.0703125 0.3671875 C-4 0 -4 0 0 0 Z " fill="#AEC499" transform="translate(104,45)"/>
<path d="M0 0 C8.77491734 0.98366511 15.16864285 9.96415355 20.8203125 16.17578125 C22 18 22 18 22 22 C21.34 22 20.68 22 20 22 C18.77934444 20.37245925 17.62423979 18.69557477 16.5 17 C12.14351442 10.82432264 6.83995346 5.41997673 0 2 C0 1.34 0 0.68 0 0 Z " fill="#C5AE6D" transform="translate(98,15)"/>
<path d="M0 0 C3.4375 1.8125 3.4375 1.8125 6 4 C6 4.99 6 5.98 6 7 C5.01 6.67 4.02 6.34 3 6 C1.43881572 5.93259135 -0.1250252 5.91485544 -1.6875 5.9375 C-2.49574219 5.94652344 -3.30398437 5.95554687 -4.13671875 5.96484375 C-4.75160156 5.97644531 -5.36648437 5.98804688 -6 6 C-6.33 6.99 -6.66 7.98 -7 9 C-7.66 6.36 -8.32 3.72 -9 1 C-5.89046621 -0.5547669 -3.43733239 -0.28644437 0 0 Z " fill="#76B9A9" transform="translate(53,25)"/>
<path d="M0 0 C3.05081496 0.31723076 3.90666113 0.88901781 5.921875 3.28515625 C6.52515625 4.20167969 7.1284375 5.11820313 7.75 6.0625 C8.36359375 6.98160156 8.9771875 7.90070312 9.609375 8.84765625 C10.06828125 9.55792969 10.5271875 10.26820312 11 11 C10.01 12.485 10.01 12.485 9 14 C8.29875 13.2575 7.5975 12.515 6.875 11.75 C4.02281994 9.02182777 1.3236937 7.08697046 -2 5 C-1.34 3.35 -0.68 1.7 0 0 Z " fill="#D6C384" transform="translate(55,45)"/>
<path d="M0 0 C0.66 0 1.32 0 2 0 C1.85769192 1.41702513 1.71099254 2.8336096 1.5625 4.25 C1.48128906 5.03890625 1.40007813 5.8278125 1.31640625 6.640625 C1 9 1 9 0.5 10.87695312 C-0.015181 13.06445993 -0.20426966 15.08539329 -0.31640625 17.328125 C-0.35830078 18.12734375 -0.40019531 18.9265625 -0.44335938 19.75 C-0.48267578 20.575 -0.52199219 21.4 -0.5625 22.25 C-0.60568359 23.09046875 -0.64886719 23.9309375 -0.69335938 24.796875 C-0.79908543 26.86440671 -0.90001295 28.93218281 -1 31 C-3.60183715 28.39816285 -3.28544339 26.52941334 -3.328125 22.97998047 C-3.32296875 22.18221191 -3.3178125 21.38444336 -3.3125 20.5625 C-3.31121094 19.75441895 -3.30992187 18.94633789 -3.30859375 18.11376953 C-3.20679772 11.74006584 -2.22124905 6.00266112 0 0 Z " fill="#B7A062" transform="translate(10,46)"/>
<path d="M0 0 C-3.13207382 3.74321017 -6.30828967 7.41449348 -9.6875 10.9375 C-10.24824219 11.52402344 -10.80898437 12.11054687 -11.38671875 12.71484375 C-13 14 -13 14 -16 14 C-14.52186113 10.77026656 -12.68253503 8.11002902 -10.5 5.3125 C-9.8915625 4.52488281 -9.283125 3.73726563 -8.65625 2.92578125 C-5.94089763 -0.23145629 -4.00495668 -0.1053936 0 0 Z " fill="#D1BB7E" transform="translate(103,78)"/>
<path d="M0 0 C7.08937809 0.15411691 11.63676328 3.5695001 17 8 C19.625 10.9375 19.625 10.9375 21 13 C20.67 13.66 20.34 14.32 20 15 C19.01 14.34 18.02 13.68 17 13 C16.01 13 15.02 13 14 13 C13.91234375 12.40445313 13.8246875 11.80890625 13.734375 11.1953125 C12.3804041 7.14780374 8.47409855 5.22028855 5 3 C2.20750607 1.6435475 2.20750607 1.6435475 0 1 C0 0.67 0 0.34 0 0 Z " fill="#386685" transform="translate(46,48)"/>
<path d="M0 0 C0.33 0 0.66 0 1 0 C1 3.3 1 6.6 1 10 C1.99 10.33 2.98 10.66 4 11 C4 12.98 4 14.96 4 17 C2.35 17 0.7 17 -1 17 C-1 16.01 -1 15.02 -1 14 C-1.66 14 -2.32 14 -3 14 C-2.01 9.38 -1.02 4.76 0 0 Z " fill="#7C8E82" transform="translate(67,63)"/>
<path d="M0 0 C0.66 0.99 1.32 1.98 2 3 C1.15528873 5.53708735 0.25737906 7.7854108 -0.875 10.1875 C-1.17019531 10.84169922 -1.46539063 11.49589844 -1.76953125 12.16992188 C-2.50070435 13.78557856 -3.24877569 15.39356835 -4 17 C-6 14 -6 14 -5.9375 11.3125 C-4.71430493 6.9905441 -2.52877272 3.67651827 0 0 Z " fill="#8A7E57" transform="translate(17,32)"/>
<path d="M0 0 C0.33 0 0.66 0 1 0 C1 2.31 1 4.62 1 7 C1.66 7 2.32 7 3 7 C3.33 4.69 3.66 2.38 4 0 C4.33 0 4.66 0 5 0 C5.02703562 2.58340384 5.04685611 5.16652308 5.0625 7.75 C5.07087891 8.47960937 5.07925781 9.20921875 5.08789062 9.9609375 C5.10391684 13.48670558 4.95292713 16.61034916 4 20 C2.35 20 0.7 20 -1 20 C0.32 19.67 1.64 19.34 3 19 C3 18.01 3 17.02 3 16 C1.68 15.67 0.36 15.34 -1 15 C0.32 15 1.64 15 3 15 C2.65772428 12.02934491 2.65772428 12.02934491 2 9 C1.34 8.67 0.68 8.34 0 8 C0 5.36 0 2.72 0 0 Z " fill="#D7C98C" transform="translate(68,65)"/>
<path d="M0 0 C0.33 0.66 0.66 1.32 1 2 C1.66 2.33 2.32 2.66 3 3 C1.78719339 4.34823166 0.55401909 5.67816082 -0.6875 7 C-1.71423828 8.11375 -1.71423828 8.11375 -2.76171875 9.25 C-5.41336988 11.3231932 -6.7171341 11.36795695 -10 11 C-6.79239749 7.19364503 -3.59253891 3.45436433 0 0 Z " fill="#31587D" transform="translate(101,80)"/>
<path d="M0 0 C1.9375 0.6875 1.9375 0.6875 4 2 C4.75 4.625 4.75 4.625 5 7 C2.36 7.33 -0.28 7.66 -3 8 C-2.45276317 4.62537285 -1.9451 2.91765 0 0 Z " fill="#BDB379" transform="translate(73,30)"/>
<path d="M0 0 C0.66 0 1.32 0 2 0 C1.50269348 4.97306516 0.44697666 8.63799813 -2 13 C-2.99 12.34 -3.98 11.68 -5 11 C-3.78065514 6.96678237 -2.44045073 3.45730521 0 0 Z " fill="#948560" transform="translate(123,87)"/>
<path d="M0 0 C-1.0625 2.375 -1.0625 2.375 -3 5 C-6.6875 6.3125 -6.6875 6.3125 -10 7 C-9.60856977 4.72970466 -9.11258722 3.16591802 -7.8125 1.25 C-5.21312784 -0.54267046 -3.07660784 -0.20510719 0 0 Z " fill="#8BC8B7" transform="translate(80,19)"/>
<path d="M0 0 C6.19518473 0.41588046 11.26689311 1.60251894 17 4 C13.81967879 4.90109101 12.18084399 4.795211 9 4 C8.360625 4.20625 7.72125 4.4125 7.0625 4.625 C5 5 5 5 2.25 3.6875 C1.5075 3.130625 0.765 2.57375 0 2 C0 1.34 0 0.68 0 0 Z " fill="#807C5E" transform="translate(39,119)"/>
<path d="M0 0 C3.10742423 1.46818668 5.90471739 3.20025 8.75 5.125 C9.94882812 5.93324219 9.94882812 5.93324219 11.171875 6.7578125 C11.77515625 7.16773437 12.3784375 7.57765625 13 8 C12.67 8.66 12.34 9.32 12 10 C7.57230983 8.52410328 3.3663135 6.26930159 0 3 C0 2.01 0 1.02 0 0 Z " fill="#A99054" transform="translate(27,110)"/>
<path d="M0 0 C7.425 0.99 7.425 0.99 15 2 C15 2.99 15 3.98 15 5 C9.99109914 4.38487182 4.99367864 3.7282448 0 3 C0 2.01 0 1.02 0 0 Z " fill="#DEC278" transform="translate(67,88)"/>
<path d="M0 0 C0.66 0.33 1.32 0.66 2 1 C1.01 2.485 1.01 2.485 0 4 C2.31 4.33 4.62 4.66 7 5 C6.01 6.485 6.01 6.485 5 8 C0.44262737 7.56179109 -2.57653445 7.14958831 -6 4 C-4.35 3.67 -2.7 3.34 -1 3 C-0.67 2.01 -0.34 1.02 0 0 Z " fill="#39627A" transform="translate(60,79)"/>
<path d="M0 0 C0.33 0 0.66 0 1 0 C1.33 8.58 1.66 17.16 2 26 C1.34 25.67 0.68 25.34 0 25 C-1.21686329 19.45489244 -0.95735257 14.19482234 -0.5625 8.5625 C-0.51029297 7.73556641 -0.45808594 6.90863281 -0.40429688 6.05664062 C-0.27590237 4.03734522 -0.13884576 2.01860371 0 0 Z " fill="#91865D" transform="translate(9,59)"/>
<path d="M0 0 C0.99 0 1.98 0 3 0 C3.33 0.99 3.66 1.98 4 3 C6.50447516 4.21869929 6.50447516 4.21869929 9 5 C9 5.33 9 5.66 9 6 C5.7 6 2.4 6 -1 6 C-1.33 4.68 -1.66 3.36 -2 2 C-1.34 1.34 -0.68 0.68 0 0 Z " fill="#DDCC8F" transform="translate(81,56)"/>
<path d="M0 0 C3.0916909 2.52956528 3.90931332 5.22454612 5 9 C5.99 9 6.98 9 8 9 C8 11.64 8 14.28 8 17 C6.23276402 14.34914603 4.57501486 11.66937368 2.9375 8.9375 C2.41027344 8.05964844 1.88304687 7.18179688 1.33984375 6.27734375 C0.51574588 4.87661764 -0.27320279 3.45359442 -1 2 C-0.67 1.34 -0.34 0.68 0 0 Z " fill="#B3B286" transform="translate(59,30)"/>
<path d="M0 0 C0.66 1.32 1.32 2.64 2 4 C1.01 4.495 1.01 4.495 0 5 C-2.38428139 8.53353932 -2.39319748 12.07755471 -2.625 16.25 C-2.69976562 17.51328125 -2.77453125 18.7765625 -2.8515625 20.078125 C-2.90054688 21.04234375 -2.94953125 22.0065625 -3 23 C-3.33 23 -3.66 23 -4 23 C-4.10861833 20.29057607 -4.18758577 17.585561 -4.25 14.875 C-4.28351563 14.11445312 -4.31703125 13.35390625 -4.3515625 12.5703125 C-4.44646798 7.06579478 -3.47743672 4.28518776 0 0 Z " fill="#46738B" transform="translate(77,57)"/>
<path d="M0 0 C0.99 0.33 1.98 0.66 3 1 C0.03 4.96 0.03 4.96 -3 9 C-3.99 8.67 -4.98 8.34 -6 8 C-4.75237172 4.15314615 -3.6129609 1.97070595 0 0 Z " fill="#CABC8C" transform="translate(89,80)"/>
<path d="M0 0 C5.53846154 0.61538462 5.53846154 0.61538462 7.875 2.5625 C8.431875 3.2740625 8.431875 3.2740625 9 4 C7.82421875 5.984375 7.82421875 5.984375 6 8 C3.51953125 8.390625 3.51953125 8.390625 0.8125 8.25 C-0.08855469 8.21390625 -0.98960938 8.1778125 -1.91796875 8.140625 C-2.60503906 8.09421875 -3.29210938 8.0478125 -4 8 C-4 7.34 -4 6.68 -4 6 C0.455 5.505 0.455 5.505 5 5 C5 4.34 5 3.68 5 3 C2.525 2.01 2.525 2.01 0 1 C0 0.67 0 0.34 0 0 Z " fill="#C6AB67" transform="translate(47,41)"/>
<path d="M0 0 C0.66 0.33 1.32 0.66 2 1 C1.06027344 2.03060547 1.06027344 2.03060547 0.1015625 3.08203125 C-0.71570312 3.98308594 -1.53296875 4.88414063 -2.375 5.8125 C-3.18710937 6.70582031 -3.99921875 7.59914063 -4.8359375 8.51953125 C-7.09072907 10.99632674 -7.09072907 10.99632674 -9 14 C-9.66 14 -10.32 14 -11 14 C-9.57442379 10.82096506 -7.8226848 8.46341568 -5.5 5.875 C-4.8915625 5.19179688 -4.283125 4.50859375 -3.65625 3.8046875 C-2.46695076 2.50880012 -1.24373566 1.24373566 0 0 Z " fill="#445863" transform="translate(24,15)"/>
<path d="M0 0 C0.33 0.66 0.66 1.32 1 2 C3.97 1.34 6.94 0.68 10 0 C6.87378374 3.39417765 4.43458973 5.6062718 0 7 C0 4.69 0 2.38 0 0 Z " fill="#17446B" transform="translate(85,90)"/>
<path d="M0 0 C0.66 0 1.32 0 2 0 C1 3 1 3 -1.125 4.1875 C-5.10992674 5.31367495 -9.20128207 5.89935896 -13 4 C-13 3.34 -13 2.68 -13 2 C-12.22914062 2.02320313 -11.45828125 2.04640625 -10.6640625 2.0703125 C-9.15972656 2.09738281 -9.15972656 2.09738281 -7.625 2.125 C-6.62726562 2.14820313 -5.62953125 2.17140625 -4.6015625 2.1953125 C-1.83737827 2.27216848 -1.83737827 2.27216848 0 0 Z " fill="#D0C68F" transform="translate(59,59)"/>
<path d="M0 0 C0.33 0.66 0.66 1.32 1 2 C0.00390625 4.3828125 0.00390625 4.3828125 -1.4375 7.125 C-1.91058594 8.03507812 -2.38367188 8.94515625 -2.87109375 9.8828125 C-3.24363281 10.58148438 -3.61617188 11.28015625 -4 12 C-2.68 12.33 -1.36 12.66 0 13 C-2.475 14.485 -2.475 14.485 -5 16 C-6.15649929 12.53050212 -5.78962862 11.42465897 -4.75 8 C-4.49734375 7.13375 -4.2446875 6.2675 -3.984375 5.375 C-2.9777947 2.94642531 -1.98015633 1.69092001 0 0 Z " fill="#315770" transform="translate(74,26)"/>
<path d="M0 0 C2.00720923 0.28674418 4.0085944 0.61866701 6 1 C5.02471263 2.33617352 4.04466681 3.6688751 3.0625 5 C2.51722656 5.7425 1.97195312 6.485 1.41015625 7.25 C0.71212891 8.11625 0.71212891 8.11625 0 9 C-0.33 9 -0.66 9 -1 9 C-1.09765625 2.84765625 -1.09765625 2.84765625 -1 1 C-0.67 0.67 -0.34 0.34 0 0 Z " fill="#90BAA0" transform="translate(69,24)"/>
<path d="M0 0 C1.32 0.66 2.64 1.32 4 2 C4 2.99 4 3.98 4 5 C3.01 4.67 2.02 4.34 1 4 C-0.56118428 3.93259135 -2.1250252 3.91485544 -3.6875 3.9375 C-4.49574219 3.94652344 -5.30398437 3.95554687 -6.13671875 3.96484375 C-6.75160156 3.97644531 -7.36648437 3.98804688 -8 4 C-8.33 4.99 -8.66 5.98 -9 7 C-9 5.35 -9 3.7 -9 2 C-6.03 2 -3.06 2 0 2 C0 1.34 0 0.68 0 0 Z " fill="#8EBBA2" transform="translate(55,27)"/>
<path d="M0 0 C3.99030365 0.93390085 6.87969402 2.35974109 10 5 C7.44855176 5.93045933 6.25993522 6.08564091 3.640625 5.22265625 C2.85171875 4.83980469 2.0628125 4.45695313 1.25 4.0625 C0.45078125 3.68222656 -0.3484375 3.30195313 -1.171875 2.91015625 C-1.77515625 2.60980469 -2.3784375 2.30945313 -3 2 C-2.01 1.34 -1.02 0.68 0 0 Z " fill="#B5A36A" transform="translate(90,10)"/>
<path d="M0 0 C0 3 0 3 -1.64453125 4.71875 C-2.35996094 5.3065625 -3.07539062 5.894375 -3.8125 6.5 C-6.32004878 8.58277276 -8.73353239 10.65488525 -11 13 C-11.66 12.34 -12.32 11.68 -13 11 C-12.39671875 10.54109375 -11.7934375 10.0821875 -11.171875 9.609375 C-9.97304687 8.68898438 -9.97304687 8.68898438 -8.75 7.75 C-7.96109375 7.14671875 -7.1721875 6.5434375 -6.359375 5.921875 C-4.08368843 4.06817005 -2.03628442 2.11101046 0 0 Z " fill="#B2A26E" transform="translate(103,83)"/>
<path d="M0 0 C0.33 0.99 0.66 1.98 1 3 C-0.21484375 4.82421875 -0.21484375 4.82421875 -1.9375 6.6875 C-2.50339844 7.31011719 -3.06929688 7.93273437 -3.65234375 8.57421875 C-4.09707031 9.04472656 -4.54179688 9.51523438 -5 10 C-5.33 9.34 -5.66 8.68 -6 8 C-2.58823529 1.29411765 -2.58823529 1.29411765 0 0 Z " fill="#B39D6B" transform="translate(119,97)"/>
<path d="M0 0 C3.6875 0.875 3.6875 0.875 7 2 C6.67 2.99 6.34 3.98 6 5 C3.03 4.67 0.06 4.34 -3 4 C-3 3.34 -3 2.68 -3 2 C-2.01 1.34 -1.02 0.68 0 0 Z " fill="#E8CB7B" transform="translate(60,86)"/>
<path d="M0 0 C4.67692308 1.47692308 4.67692308 1.47692308 6.3125 4.125 C6.539375 4.74375 6.76625 5.3625 7 6 C6.34 6.66 5.68 7.32 5 8 C2.5 5.6875 2.5 5.6875 0 3 C0 2.01 0 1.02 0 0 Z " fill="#CFC68F" transform="translate(59,51)"/>
<path d="M0 0 C-4.30769231 3.93846154 -4.30769231 3.93846154 -7.8125 4.25 C-8.534375 4.1675 -9.25625 4.085 -10 4 C-4.75 -1.425 -4.75 -1.425 0 0 Z " fill="#AD9760" transform="translate(99,119)"/>
<path d="M0 0 C0.66 0.33 1.32 0.66 2 1 C1.67 3.97 1.34 6.94 1 10 C-0.65 10 -2.3 10 -4 10 C-2.68 9.67 -1.36 9.34 0 9 C0 8.01 0 7.02 0 6 C-1.32 5.67 -2.64 5.34 -4 5 C-2.68 5 -1.36 5 0 5 C0 3.35 0 1.7 0 0 Z " fill="#AEAB81" transform="translate(71,75)"/>
<path d="M0 0 C0.99 0.33 1.98 0.66 3 1 C2.01 1.495 2.01 1.495 1 2 C1 2.66 1 3.32 1 4 C1.99 4.66 2.98 5.32 4 6 C1.36 6 -1.28 6 -4 6 C-2.84826645 3.53199953 -1.95216435 1.95216435 0 0 Z " fill="#98D1B0" transform="translate(88,39)"/>
<path d="M0 0 C0.66 0.66 1.32 1.32 2 2 C-4.75 3 -4.75 3 -7 3 C-7 2.01 -7 1.02 -7 0 C-4.29393021 -1.35303489 -2.8671629 -0.7884698 0 0 Z " fill="#B4BB8C" transform="translate(54,31)"/>
<path d="M0 0 C0.66 0 1.32 0 2 0 C2 0.66 2 1.32 2 2 C3.32 2.33 4.64 2.66 6 3 C5.67 4.32 5.34 5.64 5 7 C0.125 4.375 0.125 4.375 -1 1 C-0.67 0.67 -0.34 0.34 0 0 Z " fill="#9FCAA6" transform="translate(77,25)"/>
<path d="M0 0 C2.31 0 4.62 0 7 0 C7 0.99 7 1.98 7 3 C5.88625 2.979375 4.7725 2.95875 3.625 2.9375 C0.16784079 2.73619282 0.16784079 2.73619282 -2 4 C-1.34 2.68 -0.68 1.36 0 0 Z " fill="#C5B06F" transform="translate(109,78)"/>
<path d="M0 0 C0.66 0.99 1.32 1.98 2 3 C1.125 5.6875 1.125 5.6875 0 8 C-0.99 8 -1.98 8 -3 8 C-2.45276317 4.62537285 -1.9451 2.91765 0 0 Z " fill="#9A8A5A" transform="translate(17,32)"/>
<path d="M0 0 C5.28798182 0.41474367 8.11690718 1.35224614 12 5 C11.01 5.33 10.02 5.66 9 6 C7.63461347 5.04422943 6.30518475 4.03647024 5 3 C3.35202764 2.28837557 1.68834592 1.60968047 0 1 C0 0.67 0 0.34 0 0 Z " fill="#5B7A86" transform="translate(46,48)"/>
<path d="M0 0 C0.33 0 0.66 0 1 0 C1.144375 0.78375 1.28875 1.5675 1.4375 2.375 C1.87798925 4.96421018 1.87798925 4.96421018 3 7 C2.72057545 8.67654729 2.39171753 10.34608154 2 12 C1.01 11.34 0.02 10.68 -1 10 C-0.67 6.7 -0.34 3.4 0 0 Z " fill="#6D857A" transform="translate(67,27)"/>
<path d="M0 0 C1.8871875 0.0309375 1.8871875 0.0309375 3.8125 0.0625 C0.27838679 2.18296792 -3.13143835 2.59449289 -7.1875 3.0625 C-7.1875 2.4025 -7.1875 1.7425 -7.1875 1.0625 C-4.43671116 0.14557039 -2.82801087 -0.04636083 0 0 Z " fill="#EFD383" transform="translate(41.1875,81.9375)"/>
<path d="M0 0 C0.66 0.66 1.32 1.32 2 2 C0.25 4.0625 0.25 4.0625 -2 6 C-4.25 5.75 -4.25 5.75 -6 5 C-4.02 3.35 -2.04 1.7 0 0 Z " fill="#D9B96C" transform="translate(100,88)"/>
<path d="M0 0 C0.99 1.485 0.99 1.485 2 3 C2.98095748 4.01868662 3.97702078 5.02351983 5 6 C4.67 6.99 4.34 7.98 4 9 C3.34 9 2.68 9 2 9 C0.50178941 5.62902617 0 3.79557881 0 0 Z " fill="#618288" transform="translate(69,50)"/>
<path d="M0 0 C1.32 0.33 2.64 0.66 4 1 C2.6875 3 2.6875 3 1 5 C0.01 5 -0.98 5 -2 5 C-1.34 3.35 -0.68 1.7 0 0 Z " fill="#CEB777" transform="translate(55,45)"/>
<path d="M0 0 C0 0.99 0 1.98 0 3 C-2.64 3 -5.28 3 -8 3 C-7.67 2.34 -7.34 1.68 -7 1 C-4.61370553 0.38812962 -2.46459429 0 0 0 Z " fill="#82C8AF" transform="translate(55,26)"/>
</svg>
